<svg width="928" height="928" viewBox="0 0 928 928" fill="none" xmlns="http://www.w3.org/2000/svg">
<g opacity="0.1">
<path d="M22.5095 431.749C24.3771 431.852 25.205 433.012 25.0847 435.19L24.8048 440.257L19.113 439.943L19.3905 434.92C19.5083 432.787 20.5974 431.643 22.5095 431.749ZM10.6444 431.762C12.4675 431.863 13.293 433.068 13.1752 435.201L12.9321 439.602L7.41815 439.297L7.66124 434.897C7.77911 432.763 8.77676 431.659 10.6444 431.762ZM24.2481 422.883C20.6907 422.687 17.4083 424.78 16.3572 428.466C15.6818 425.353 13.3144 422.993 9.53466 422.785C4.33201 422.497 1.18109 426.247 0.829958 432.603L0 447.626L31.3493 449.356L32.2063 433.844C32.5771 427.133 29.5397 423.175 24.2481 422.883Z" fill="white"/>
<path d="M16.1142 391.577C18.2298 391.883 19.2037 393.238 18.8658 395.573L18.2473 399.847L11.7681 398.91L12.3866 394.636C12.7245 392.301 14.1748 391.297 16.1142 391.577ZM3.28995 406.5L34.3636 410.993L35.6133 402.358L24.1535 400.701L24.2874 399.775L36.6398 395.264L38.0361 385.616L24.9014 390.868C24.1605 386.039 20.9532 383.326 16.8982 382.74C11.3446 381.936 6.37588 385.176 5.2601 392.886L3.28995 406.5Z" fill="white"/>
<path d="M32.8217 363.343L42.5299 365.637L44.5484 357.103L34.8402 354.808L16.5347 339.138L14.2703 348.712L24.7882 356.87L11.7292 359.456L9.43396 369.16L32.8217 363.343Z" fill="white"/>
<path d="M55.5343 320.789L58.4399 312.043L25.0497 312.967L21.8774 322.515L48.0667 343.264L50.9583 334.561L46.6312 331.342L50.1404 320.78L55.5343 320.789ZM43.1129 320.746L40.9933 327.125L32.4097 320.758L43.1129 320.746Z" fill="white"/>
<path d="M40.4201 274.097L56.7228 281.163L35.7959 284.756L32.3233 292.761L61.1289 305.246L64.6015 297.241L48.503 290.264L69.2257 286.582L72.6982 278.577L43.8926 266.092L40.4201 274.097Z" fill="white"/>
<path d="M99.587 212.809C101.145 213.843 101.271 215.263 100.064 217.08L97.256 221.308L92.5071 218.156L95.2908 213.965C96.4732 212.185 97.9917 211.75 99.587 212.809ZM89.3486 206.815C90.8697 207.825 90.9713 209.282 89.7888 211.062L87.35 214.733L82.7495 211.68L85.1883 208.008C86.3707 206.228 87.7903 205.781 89.3486 206.815ZM105.577 206.044C102.609 204.074 98.7187 204.217 95.9445 206.865C96.9394 203.838 96.0934 200.605 92.9398 198.512C88.599 195.631 83.9825 197.269 80.4597 202.572L72.1333 215.107L98.2897 232.467L106.887 219.524C110.607 213.924 109.992 208.975 105.577 206.044Z" fill="white"/>
<path d="M130.496 188.197L136.254 181.001L104.614 170.298L98.3275 178.155L115.698 206.692L121.428 199.53L118.485 195.012L125.44 186.321L130.496 188.197ZM118.86 183.854L114.659 189.103L108.816 180.156L118.86 183.854Z" fill="white"/>
<path d="M122.652 149.467L145.342 171.159L158.117 157.809L153.289 153.193L146.548 160.239L128.686 143.162L122.652 149.467Z" fill="white"/>
<path d="M151.794 120.558L172.477 144.169L186.382 132L181.981 126.976L174.644 133.398L158.361 114.81L151.794 120.558Z" fill="white"/>
<path d="M207.763 115.398L214.813 110.253L196.298 84.9064L189.248 90.0515L207.763 115.398Z" fill="white"/>
<path d="M270.789 68.2664C274.391 66.5104 275.847 62.3839 274.109 58.8228C272.353 55.2217 268.184 53.7865 264.582 55.5425C261.019 57.2789 259.583 61.4455 261.34 65.0466C263.077 68.6077 267.226 70.0028 270.789 68.2664Z" fill="white"/>
<path d="M336.035 50.6924L344.432 48.309L341.074 36.49L349.985 33.9606L348.173 27.5801L339.262 30.1095L337.753 24.7995L349.834 21.3702L347.936 14.6899L327.458 20.5027L336.035 50.6924Z" fill="white"/>
<path d="M395.742 20.6182C393.975 11.3475 385.734 6.16439 376.941 7.8384C368.191 9.50407 362.345 17.369 364.112 26.6396C365.878 35.9103 374.215 41.1205 382.965 39.4548C391.714 37.7891 397.508 29.8889 395.742 20.6182ZM372.861 24.9739C371.936 20.12 373.978 16.5592 378.44 15.7097C382.859 14.8685 386.111 17.4216 387.036 22.2755C387.944 27.0421 385.867 30.6549 381.448 31.4961C376.986 32.3455 373.769 29.7405 372.861 24.9739Z" fill="white"/>
<path d="M409.192 21.5792C410.083 30.4824 416.207 34.4333 423.741 33.68C431.23 32.9312 436.981 27.7928 436.09 18.8896L434.277 0.773199L425.592 1.64167L427.405 19.7581C427.729 22.9916 426.382 25.1842 423.102 25.5121C419.823 25.84 418.157 23.9487 417.833 20.7152L416.02 2.59876L407.379 3.4628L409.192 21.5792Z" fill="white"/>
<path d="M464.445 0.0977812L464.645 17.8584L452.823 0.22799L444.094 0.325771L444.446 31.7072L453.174 31.6095L452.978 14.0714L464.797 31.4792L473.526 31.3815L473.174 0L464.445 0.0977812Z" fill="white"/>
<path d="M498.203 1.40575L485.815 0.446794L483.391 31.7365L495.779 32.6955C505.77 33.4688 512.631 27.3473 513.333 18.2933C514.045 9.10608 508.194 2.1791 498.203 1.40575ZM492.689 24.732L493.933 8.66551L496.953 8.89924C501.97 9.28763 504.899 12.4165 504.497 17.6093C504.098 22.7577 500.725 25.3541 495.708 24.9657L492.689 24.732Z" fill="white"/>
<path d="M550.639 8.20525L530.83 4.89212L525.648 35.8453L545.458 39.1584L546.612 32.2653L535.411 30.392L536.345 24.8161L546.228 26.4689L547.323 19.9271L537.44 18.2742L538.285 13.2251L549.485 15.0984L550.639 8.20525Z" fill="white"/>
<path d="M585.217 27.1607C584.679 29.2288 583.224 30.0466 580.94 29.4531L576.759 28.367L578.405 22.0336L582.586 23.1198C584.871 23.7133 585.71 25.265 585.217 27.1607ZM571.794 12.773L563.897 43.1473L572.345 45.3421L575.257 34.1402L576.163 34.3754L579.284 47.1449L588.724 49.5973L584.951 35.9687C589.835 35.7658 592.887 32.8789 593.917 28.9152C595.329 23.4866 592.656 18.1928 585.113 16.2332L571.794 12.773Z" fill="white"/>
<path d="M647.921 64.0307C651.562 65.7055 655.679 64.2178 657.336 60.6187C659.011 56.9791 657.483 52.8458 653.841 51.171C650.241 49.5148 646.106 51.043 644.43 54.6825C642.773 58.2817 644.321 62.3746 647.921 64.0307Z" fill="white"/>
<path d="M707.377 87.3213C702.007 95.0294 703.32 103.972 711.069 109.365C717.537 113.867 724.738 113.346 730.089 108.392L722.378 103.024C720.115 104.324 717.659 104.188 715.54 102.713C712.25 100.423 711.876 96.3654 714.65 92.3835C717.398 88.4381 721.336 87.3817 724.625 89.6711C726.745 91.1466 727.724 93.4015 727.289 95.9737L735.001 101.341C737.794 94.6057 735.784 87.6743 729.315 83.1718C721.568 77.779 712.721 79.6497 707.377 87.3213Z" fill="white"/>
<path d="M760.633 121.181C759.262 122.82 757.596 122.936 755.786 121.422L752.473 118.651L756.674 113.632L759.987 116.403C761.798 117.918 761.891 119.679 760.633 121.181ZM754.667 102.434L734.518 126.503L741.213 132.102L748.643 123.226L749.361 123.826L746.712 136.702L754.192 142.958L756.62 129.027C761.121 130.934 765.115 129.631 767.745 126.49C771.346 122.189 771.198 116.261 765.221 111.262L754.667 102.434Z" fill="white"/>
<path d="M799.232 143.271L785.028 129.077L762.83 151.272L777.034 165.466L781.978 160.523L773.946 152.498L777.945 148.5L785.032 155.581L789.723 150.89L782.637 143.809L786.258 140.188L794.289 148.214L799.232 143.271Z" fill="white"/>
<path d="M800.185 191.896L806.103 198.961L822.857 170.077L816.396 162.363L784.975 173.738L790.864 180.769L795.878 178.78L803.025 187.313L800.185 191.896ZM806.746 181.354L802.429 176.2L812.359 172.244L806.746 181.354Z" fill="white"/>
<path d="M833.414 194.975L838.149 201.769L818.089 215.74L823.079 222.899L843.14 208.928L847.926 215.794L853.626 211.824L839.114 191.005L833.414 194.975Z" fill="white"/>
<path d="M838.67 248.044L843.008 255.615L870.254 240.02L865.916 232.449L838.67 248.044Z" fill="white"/>
<path d="M864.722 279.439L882.332 263.492L878.42 255.001L854.447 277.994L859.122 288.143L892.168 284.841L888.274 276.39L864.722 279.439Z" fill="white"/>
<path d="M904.3 317.707L897.544 298.8L867.977 309.357L874.733 328.263L881.317 325.912L877.497 315.222L882.823 313.321L886.194 322.753L892.443 320.522L889.073 311.09L893.896 309.368L897.716 320.058L904.3 317.707Z" fill="white"/>
<path d="M921.223 385.844L919.169 373.595L888.204 378.783L890.258 391.032C891.914 400.91 899.512 406.092 908.472 404.591C917.564 403.067 922.88 395.722 921.223 385.844ZM897.245 386.115L913.145 383.451L913.646 386.436C914.478 391.398 912.146 394.993 907.007 395.854C901.912 396.708 898.578 394.061 897.746 389.1L897.245 386.115Z" fill="white"/>
<path d="M927.257 438.351L925.7 418.335L894.397 420.767L895.954 440.783L902.925 440.242L902.045 428.924L907.684 428.486L908.46 438.472L915.076 437.958L914.299 427.972L919.406 427.576L920.286 438.893L927.257 438.351Z" fill="white"/>
<path d="M905.153 468.79L927.898 461.916L928 452.568L896.486 463.086L896.364 474.259L927.641 485.418L927.743 476.115L905.153 468.79Z" fill="white"/>
<path d="M924.527 520.311L926.52 500.334L895.278 497.219L893.285 517.196L900.242 517.89L901.369 506.595L906.997 507.156L906.003 517.122L912.606 517.781L913.6 507.814L918.696 508.322L917.569 519.618L924.527 520.311Z" fill="white"/>
<path d="M921.257 542.305L890.413 536.443L886.961 554.591L893.523 555.839L895.345 546.261L919.627 550.877L921.257 542.305Z" fill="white"/>
<path d="M890.847 601.756C899.93 604.331 908.258 599.289 910.701 590.681C913.132 582.116 908.717 573.368 899.634 570.793C890.551 568.218 882.155 573.333 879.724 581.898C877.294 590.463 881.764 599.181 890.847 601.756ZM897.203 579.358C901.959 580.707 904.229 584.126 902.989 588.495C901.761 592.82 898.021 594.582 893.265 593.234C888.595 591.91 886.295 588.435 887.522 584.109C888.762 579.741 892.533 578.034 897.203 579.358Z" fill="white"/>
<path d="M884.27 624.76L890.635 627.191L889.396 630.435C888.458 632.888 886.828 633.41 884.873 632.663C882.959 631.932 882.093 630.458 883.03 628.004L884.27 624.76ZM881.695 640.98C887.353 643.14 892.886 641.012 895.667 633.735L900.323 621.55L870.994 610.351L867.879 618.502L877.78 622.282L876.238 626.316C873.394 633.76 876.578 639.026 881.695 640.98Z" fill="white"/>
<path d="M876.419 676.443L885.217 658.395L856.992 644.648L848.194 662.696L854.48 665.758L859.454 655.553L864.539 658.029L860.15 667.034L866.115 669.939L870.504 660.935L875.108 663.177L870.134 673.382L876.419 676.443Z" fill="white"/>
<path d="M848.426 704.208C846.594 703.106 846.222 701.48 847.44 699.458L849.668 695.759L855.277 699.134L853.048 702.833C851.831 704.855 850.104 705.219 848.426 704.208ZM866.036 695.424L839.137 679.238L834.635 686.713L844.555 692.682L844.073 693.483L830.937 692.853L825.907 701.205L840.051 701.455C838.86 706.194 840.764 709.938 844.275 712.05C849.082 714.943 854.919 713.883 858.938 707.209L866.036 695.424Z" fill="white"/>
<path d="M795.268 753.853C792.629 756.867 792.888 761.235 795.871 763.844C798.887 766.483 803.286 766.19 805.926 763.175C808.536 760.193 808.243 755.796 805.227 753.158C802.244 750.549 797.878 750.871 795.268 753.853Z" fill="white"/>
<path d="M745.661 832.566L761.342 820.021L741.724 795.518L726.042 808.063L730.411 813.52L739.278 806.427L742.812 810.841L734.988 817.099L739.135 822.278L746.958 816.019L750.158 820.016L741.292 827.109L745.661 832.566Z" fill="white"/>
<path d="M721.823 849.475L732.173 842.601L714.798 816.462L704.448 823.335C696.102 828.877 694.47 837.925 699.498 845.489C704.599 853.164 713.477 855.017 721.823 849.475ZM711.791 827.704L720.712 841.127L718.19 842.802C713.998 845.585 709.763 844.924 706.879 840.586C704.02 836.285 705.077 832.163 709.268 829.38L711.791 827.704Z" fill="white"/>
<path d="M671.485 843.319L663.816 847.486L678.811 875.059L686.48 870.892L671.485 843.319Z" fill="white"/>
<path d="M654.5 879.285L646.901 882.581L637.168 860.163L629.16 863.636L638.893 886.055L631.213 889.387L633.979 895.757L657.265 885.656L654.5 879.285Z" fill="white"/>
<path d="M617.031 894.505L609.17 897.116L601.457 873.925L593.174 876.678L600.887 899.869L592.942 902.509L595.134 909.099L619.222 901.094L617.031 894.505Z" fill="white"/>
<path d="M560.925 906.775C560.433 904.695 561.336 903.292 563.633 902.749L567.837 901.754L569.345 908.122L565.141 909.117C562.844 909.66 561.377 908.681 560.925 906.775ZM579.521 913.216L572.289 882.677L563.795 884.687L566.462 895.949L565.552 896.165L556.817 886.338L547.327 888.583L557.038 898.865C552.816 901.328 551.47 905.306 552.414 909.292C553.707 914.75 558.546 918.179 566.13 916.385L579.521 913.216Z" fill="white"/>
<path d="M518.723 892.955L509.6 894.277L525.387 923.701L535.348 922.258L542.171 889.558L533.092 890.873L532.152 896.182L521.133 897.779L518.723 892.955ZM524.251 904.074L530.906 903.11L529.057 913.633L524.251 904.074Z" fill="white"/>
<path d="M482.141 896.039L471.87 896.609L483.45 911.571L474.277 927.907L484.193 927.357L488.783 918.453L495.176 926.748L505.448 926.178L494.06 911.473L503.352 894.862L493.436 895.413L488.725 904.546L482.141 896.039Z" fill="white"/>
<path d="M442.681 927.328L443.268 909.576L454.298 927.712L463.022 928L464.06 896.634L455.336 896.345L454.756 913.875L443.718 895.962L434.994 895.673L433.957 927.04L442.681 927.328Z" fill="white"/>
<path d="M421.291 894.41L412.626 893.353L411.136 905.548L401.941 904.426L401.137 911.01L410.332 912.132L409.662 917.611L397.196 916.089L396.354 922.983L417.484 925.562L421.291 894.41Z" fill="white"/>
<path d="M377.822 912.769L369.721 911.042L374.819 887.14L366.282 885.321L361.184 909.223L352.995 907.478L351.547 914.27L376.374 919.56L377.822 912.769Z" fill="white"/>
<path d="M291.788 860.6C284.695 857.71 278.429 862.224 275.538 869.314C271.924 878.177 275.87 886.899 285.851 890.965C298.924 896.291 312.637 890.966 317.932 877.981C321.714 868.706 317.842 860.158 308.109 856.193C304.727 854.815 301.258 854.123 298.049 854.209L297.284 859.859C299.716 859.792 302.533 860.314 305.337 861.457C312.059 864.195 314.364 869.749 311.758 876.139C308.06 885.208 298.098 889.706 288.778 885.909C281.85 883.086 279.206 877.539 281.66 871.52C283.207 867.728 285.9 864.306 288.498 865.365C289.942 865.953 289.694 867.15 288.7 868.764L283.042 877.803L289.393 880.391L290.747 878.25C290.768 880.086 291.89 881.697 294.241 882.654C299.726 884.889 305.756 880.952 308.176 875.016C309.908 870.77 308.483 867.305 304.441 865.659C301.554 864.483 298.634 864.687 296.316 866.242C296.332 863.845 294.799 861.826 291.788 860.6ZM294.238 872.991C295.196 870.641 297.626 869.516 299.482 870.272C300.926 870.86 301.347 872.186 300.725 873.711C299.767 876.061 297.451 877.376 295.472 876.57C294.028 875.982 293.599 874.557 294.238 872.991Z" fill="white"/>
<path d="M215.203 855.947C223.333 861.087 232.163 858.874 237.163 850.974C242.186 843.036 240.365 834.089 232.236 828.949C225.311 824.57 218.494 826.265 214.461 829.14L209.938 836.288L223.713 844.998L227.07 839.694L219.655 835.006C222.199 833.401 224.843 833.387 227.402 835.005C231.768 837.766 232.554 841.686 229.673 846.238C227.102 850.301 223.201 851.469 219.475 849.114C217.443 847.828 216.437 846.087 216.49 844.171L208.548 839.15C206.103 845.346 208.504 851.711 215.203 855.947Z" fill="white"/>
<path d="M213.171 816.737L206.235 811.44L195.635 825.305L201.493 807.818L195.69 803.385L180.465 813.549L190.984 799.79L184.048 794.492L164.984 819.429L173.335 825.807L191.842 814.284L185.72 835.268L194.107 841.673L213.171 816.737Z" fill="white"/>
<path d="M166.451 778.116L159.649 771.896L146.867 802.743L154.292 809.534L183.931 794.102L177.162 787.912L172.456 790.547L164.242 783.035L166.451 778.116ZM161.343 789.434L166.304 793.971L156.986 799.206L161.343 789.434Z" fill="white"/>
<path d="M145.518 756.82L139.624 750.384L116.466 771.576L122.36 778.011L145.518 756.82Z" fill="white"/>
<path d="M100.343 752.389L125.284 733.326L114.058 718.651L108.751 722.706L114.676 730.451L95.0409 745.458L100.343 752.389Z" fill="white"/>
<path d="M90.345 690.449C88.2001 691.806 87.5786 694.57 89.222 697.166C90.8893 699.799 93.6545 700.42 95.7994 699.063C97.9444 697.706 98.5283 694.966 96.861 692.333C95.2175 689.737 92.4899 689.092 90.345 690.449Z" fill="white"/>
<path d="M72.3191 682.98C80.6721 678.677 83.6956 670.159 79.3709 661.77C75.7602 654.766 69.1519 651.86 62.1038 653.738L66.4081 662.087C69.0163 661.996 71.1231 663.264 72.3063 665.559C74.1422 669.121 72.5747 672.883 68.2596 675.105C63.984 677.307 60.0093 676.4 58.1733 672.839C56.9902 670.544 57.1794 668.093 58.7676 666.023L54.4633 657.673C48.8432 662.321 47.3756 669.386 50.9863 676.39C55.311 684.779 64.0056 687.262 72.3191 682.98Z" fill="white"/>
<path d="M42.529 618.356C33.787 621.921 30.3342 631.021 33.7152 639.306C37.0794 647.549 45.9485 651.722 54.6906 648.157C63.4326 644.593 66.893 635.393 63.5288 627.15C60.1646 618.906 51.2711 614.792 42.529 618.356ZM51.3264 639.914C46.7492 641.78 42.8534 640.484 41.1377 636.279C39.4387 632.116 41.2992 628.425 45.8764 626.559C50.3711 624.726 54.325 626.047 56.0239 630.21C57.7396 634.414 55.8211 638.081 51.3264 639.914Z" fill="white"/>
<path d="M54.8294 605.717L52.2597 597.379L35.5757 602.516L50.5029 591.678L48.3528 584.701L30.0527 584.141L46.609 579.043L44.0394 570.705L14.0336 579.944L17.1277 589.984L38.889 591.341L21.7165 604.874L24.8237 614.956L54.8294 605.717Z" fill="white"/>
<path d="M26.674 517.464C26.1869 513.488 22.7579 510.768 18.8237 511.249C14.8453 511.736 12.1298 515.208 12.6169 519.185C13.0986 523.117 16.5718 525.832 20.5502 525.345C24.4844 524.863 27.1557 521.397 26.674 517.464Z" fill="white"/>
</g>
</svg>
