<svg width="103" height="36" viewBox="0 0 103 36" fill="none" xmlns="http://www.w3.org/2000/svg">
<mask id="mask0_384_4710" style="mask-type:alpha" maskUnits="userSpaceOnUse" x="0" y="0" width="103" height="36">
<rect width="103" height="36" fill="#C4C4C4"/>
</mask>
<g mask="url(#mask0_384_4710)">
<rect width="103" height="36" fill="black"/>
<path d="M18.6349 22.4461C17.4533 22.7875 16.0939 23.139 15.1926 23.3192C15.6335 22.9398 16.188 22.5019 16.4894 22.2508C17.4263 21.5003 17.5073 21.4388 17.4317 21.1173C17.3585 20.8058 17.2337 20.7715 16.2864 20.4853C15.9347 20.3877 15.3189 20.2039 14.9004 20.0478C15.4496 19.6323 16.4851 18.9859 16.9521 18.717C17.1323 18.8973 17.4154 19.2443 17.6535 19.5806C17.8107 19.7981 18.1204 19.8526 18.3379 19.6954C18.5555 19.5382 18.6022 19.2409 18.4426 19.0133C17.4014 17.5616 17.1 17.6325 16.8589 17.6892C16.6177 17.7459 15.2381 18.6429 15.218 18.6476C13.7196 19.6256 13.5831 19.9016 13.6433 20.248C13.7171 20.6972 14.1828 20.8739 15.9854 21.415C15.96 21.4422 15.9245 21.4717 15.8867 21.4912C13.8356 23.1399 13.472 23.5329 13.5807 23.9951C13.6138 24.1358 13.7072 24.2623 13.8413 24.3367C13.9654 24.4136 14.2237 24.5649 16.2031 24.0995C16.8864 23.9388 17.7659 23.7108 18.9072 23.3788C19.1637 23.2972 19.3127 23.0289 19.2412 22.7701C19.1697 22.5112 18.8914 22.3646 18.6349 22.4461Z" fill="white"/>
<path d="M23.4847 14.9648C23.2146 14.9434 22.984 15.1355 22.9503 15.3979L22.5958 19.0759C22.2962 18.4783 21.9263 17.8973 21.5356 17.724C21.3589 17.6489 21.1663 17.6412 20.9925 17.7139C20.217 18.0235 19.4842 22.0767 19.4693 22.9603C19.458 23.228 19.4443 23.8463 19.9047 24.0455C19.9892 24.0892 20.1311 24.1513 20.3521 24.0993C20.744 24.0072 21.3741 23.5303 22.3294 21.8212L22.2152 23.0038C22.1815 23.2662 22.3759 23.5068 22.646 23.5281C22.701 23.5364 22.7536 23.5346 22.8038 23.5228C23.0048 23.4756 23.1573 23.3125 23.1804 23.095L23.9178 15.4991C23.9492 15.2266 23.7447 14.9884 23.4847 14.9648ZM20.4315 22.9037C20.4777 21.9279 20.9869 19.7193 21.3422 18.8405C21.5408 19.1437 21.8161 19.6833 22.046 20.2549C21.4944 21.3813 20.8411 22.4362 20.4315 22.9037Z" fill="white"/>
<path d="M24.6607 19.0038C24.3906 18.9825 24.1648 19.1947 24.1535 19.4624C24.147 19.57 24.0409 22.1398 24.0266 22.6203C24.0177 22.8981 24.2275 23.1138 24.5053 23.1227C24.5378 23.1257 24.578 23.1162 24.6182 23.1068C24.8292 23.0572 24.987 22.8716 24.9977 22.6464C25.0019 22.1683 25.124 19.5311 25.1293 19.5086C25.1406 19.2409 24.9284 19.0151 24.6607 19.0038ZM24.8714 16.4731C24.6013 16.4517 24.3608 16.6462 24.3371 16.9062L24.2347 17.9588C24.2033 18.2313 24.3977 18.4719 24.6678 18.4932C24.7228 18.5015 24.7754 18.4997 24.8257 18.4879C25.0266 18.4406 25.1791 18.2775 25.2022 18.06L25.3046 17.0074C25.3259 16.7373 25.1338 16.5068 24.8714 16.4731Z" fill="white"/>
<path d="M29.4678 17.0676C28.856 17.1266 28.2762 17.2311 27.7691 17.3292L27.7893 16.6034C27.8006 16.3356 27.5884 16.1098 27.3207 16.0986C27.0453 16.0997 26.8295 16.3095 26.8182 16.5772L26.7945 17.5584C26.2418 17.6883 25.8872 17.8035 25.857 17.8106C25.6029 17.9022 25.464 18.1681 25.5455 18.4246C25.627 18.6812 25.903 18.8177 26.1595 18.7362C26.1595 18.7362 26.3859 18.6618 26.7553 18.5643L26.6597 21.9905C26.6585 22.2559 26.8606 22.484 27.136 22.4829C27.1809 22.4935 27.2211 22.4841 27.2613 22.4746C27.4623 22.4274 27.6201 22.2418 27.6308 22.0166L27.74 18.3327C28.2749 18.2176 28.905 18.1012 29.5669 18.0304C29.587 18.0256 29.6071 18.0209 29.6272 18.0162C29.8684 17.9595 30.0292 17.7414 30.0026 17.4932C29.9713 17.2248 29.7361 17.0363 29.4678 17.0676Z" fill="white"/>
<path d="M37.1296 11.3956C34.6229 11.7836 28.2738 14.0931 27.9995 14.1894C27.7554 14.2786 27.6188 14.5546 27.7104 14.8087C27.7973 15.0428 28.0407 15.1764 28.2819 15.1197C28.302 15.115 28.3197 15.1002 28.3298 15.0978C28.3599 15.0907 29.3665 14.7268 30.7301 14.2577L30.1489 20.1733C30.1276 20.4434 30.3196 20.6739 30.582 20.7076C30.637 20.7159 30.6872 20.7041 30.7375 20.6923C30.9384 20.645 31.0909 20.4819 31.1164 20.2745L31.7414 13.9139C33.7084 13.2604 36.0319 12.5444 37.2713 12.359C37.5349 12.3076 37.7211 12.0624 37.6821 11.8064C37.6408 11.5405 37.3855 11.3566 37.1296 11.3956Z" fill="white"/>
<path d="M34.0299 19.091C34.0825 19.0892 34.1375 19.0975 34.1877 19.0857C34.1978 19.0833 34.2078 19.081 34.2179 19.0786C34.4188 19.0313 34.5808 18.9084 34.6907 18.7447C35.5591 17.3423 35.7445 14.6585 35.1854 14.1749C35.0767 14.0733 34.897 14.0307 34.754 14.0537C34.5785 14.0738 34.3249 14.1228 33.265 15.7929L33.2952 15.245C33.3064 14.9773 33.1043 14.7491 32.8466 14.7355C32.5765 14.7142 32.3383 14.9187 32.3271 15.1864L32.1855 17.6055C32.1595 17.6752 32.1559 17.7503 32.1725 17.8206L31.9462 21.4578C31.9349 21.7255 32.137 21.9537 32.4048 21.965C32.4497 21.9756 32.4999 21.9638 32.5401 21.9543C32.7511 21.9047 32.9013 21.7316 32.9143 21.5164L33.0393 19.5678L37.4138 24.3728C37.5278 24.452 37.6726 24.4816 37.8133 24.4485C37.9238 24.4225 38.0148 24.3587 38.0887 24.2671C38.2495 24.049 38.1987 23.7429 37.9807 23.5821L34.0299 19.091ZM34.5239 15.6453C34.5013 16.3611 34.3546 17.3605 33.9284 18.1181C33.7712 18.0809 33.4727 17.939 33.1973 17.7599C33.646 17.0075 34.1479 16.2109 34.5239 15.6453Z" fill="white"/>
<path d="M39.42 14.1971C39.1499 14.1758 38.9193 14.3678 38.888 14.6403L38.8341 15.268C38.5322 14.6604 38.1623 14.0793 37.7716 13.9061C37.5949 13.831 37.4022 13.8233 37.2284 13.896C36.453 14.2056 35.7201 18.2588 35.7052 19.1424C35.694 19.4101 35.6803 20.0283 36.1407 20.2276C36.2252 20.2713 36.367 20.3334 36.5881 20.2814C36.98 20.1893 37.6101 19.7124 38.5654 18.0032L38.4512 19.1859C38.4175 19.4483 38.6119 19.6889 38.882 19.7102C38.9369 19.7185 38.9895 19.7167 39.0398 19.7049C39.2407 19.6576 39.3932 19.4945 39.4163 19.277L39.8531 14.7315C39.8868 14.469 39.6924 14.2285 39.42 14.1971ZM36.6675 19.0858C36.7137 18.11 37.2229 15.9014 37.5782 15.0225C37.7767 15.3258 38.0521 15.8654 38.2819 16.437C37.7303 17.5634 37.0771 18.6183 36.6675 19.0858Z" fill="white"/>
<path d="M43.4904 12.6991C43.2517 12.5856 42.9597 12.6967 42.8486 12.9455L41.9026 15.0554L40.9826 13.5328C40.8431 13.3005 40.5411 13.2336 40.3189 13.3707C40.0866 13.5102 40.0073 13.8045 40.1468 14.0368L41.4243 16.1328L40.3128 18.6209C40.1993 18.8596 40.3104 19.1516 40.5592 19.2628C40.6538 19.3041 40.7613 19.3107 40.8618 19.287C41.0025 19.254 41.129 19.1606 41.1911 19.0188L42.0335 17.1453L42.9169 18.6023C43.0245 18.7891 43.2437 18.8648 43.4447 18.8175C43.4849 18.8081 43.5351 18.7962 43.5807 18.7643C43.8129 18.6249 43.8821 18.3329 43.7427 18.1006L42.5118 16.0679L43.7368 13.341C43.848 13.0922 43.7393 12.8103 43.4904 12.6991Z" fill="white"/>
<path d="M39.1105 22.3225C39.1105 22.1769 38.9956 22.0619 38.8127 22.0619C38.6274 22.0619 38.5125 22.1769 38.5125 22.3225C38.5125 22.4657 38.6274 22.5784 38.8127 22.5784C38.9956 22.5784 39.1105 22.4657 39.1105 22.3225Z" fill="white"/>
<path d="M40.3754 20.8975V21.7473L39.8243 20.8975H39.3036V22.5596H39.8243V21.7238L40.3754 22.5596H40.8961V20.8975H40.3754Z" fill="white"/>
<path d="M41.1313 22.5596H41.652V21.9328H42.1211V21.5407H41.652V21.3106H42.304V20.8975H41.1313V22.5596Z" fill="white"/>
<path d="M42.3865 21.3106H42.8228V22.5596H43.3434V21.3106H43.7844V20.8975H42.3865V21.3106Z" fill="white"/>
<rect x="20" y="7" width="19" height="19" rx="9.5" fill="white" fill-opacity="0.1"/>
</g>
</svg>
