<svg width="175" height="110" viewBox="0 0 175 110" fill="none" xmlns="http://www.w3.org/2000/svg">
<path d="M147.152 88.257C147.152 87.4186 146.49 86.756 145.436 86.756C144.369 86.756 143.707 87.4186 143.707 88.257C143.707 89.0818 144.369 89.7309 145.436 89.7309C146.49 89.7309 147.152 89.0818 147.152 88.257Z" fill="white"/>
<path d="M154.438 80.0488V84.944L151.263 80.0488H148.264V89.6227H151.263V84.8087L154.438 89.6227H157.437V80.0488H154.438Z" fill="white"/>
<path d="M158.792 89.6227H161.791V86.0122H164.493V83.754H161.791V82.4288H165.547V80.0488H158.792V89.6227Z" fill="white"/>
<path d="M166.022 82.4288H168.535V89.6227H171.534V82.4288H174.074V80.0488H166.022V82.4288Z" fill="white"/>
<path d="M29.2114 88.9687C22.4058 90.9356 14.5754 92.9601 9.38355 93.9978C11.9235 91.8125 15.1172 89.2903 16.8536 87.8436C22.2502 83.5208 22.7166 83.1668 22.2811 81.3147C21.8592 79.5206 21.1409 79.323 15.6839 77.6745C13.6583 77.1126 10.1111 76.0533 7.7009 75.1542C10.8639 72.7614 16.8289 69.0378 19.5186 67.4891C20.5568 68.5276 22.1872 70.5262 23.5589 72.4635C24.4643 73.7164 26.2482 74.0299 27.5011 73.1245C28.7541 72.2191 29.0232 70.5067 28.1042 69.1959C22.1068 60.8339 20.3705 61.2422 18.9815 61.5688C17.5924 61.8954 9.6459 67.0622 9.53014 67.0895C0.899252 72.7226 0.112618 74.3123 0.459599 76.3073C0.884801 78.8947 3.56733 79.913 13.9503 83.0294C13.8039 83.186 13.5996 83.3562 13.3817 83.4685C1.56721 92.9652 -0.526807 95.2288 0.0992448 97.8911C0.289782 98.7014 0.827579 99.43 1.60032 99.8591C2.31518 100.302 3.80279 101.173 15.2045 98.4923C19.1401 97.5669 24.206 96.2535 30.7801 94.3411C32.2577 93.8715 33.1158 92.326 32.7041 90.8348C32.2923 89.3436 30.689 88.4991 29.2114 88.9687Z" fill="white"/>
<path d="M57.1465 45.8757C55.5907 45.753 54.2629 46.8592 54.0686 48.3707L52.0266 69.556C50.301 66.1139 48.1703 62.7671 45.9201 61.7693C44.9023 61.3368 43.7924 61.2924 42.7915 61.711C38.3247 63.4943 34.1035 86.8411 34.0177 91.9307C33.9528 93.4729 33.8741 97.0338 36.5259 98.1815C37.0127 98.4335 37.8297 98.791 39.103 98.4916C41.3602 97.9608 44.9896 95.214 50.4925 85.3692L49.8345 92.1813C49.6402 93.6928 50.7601 95.0786 52.3159 95.2013C52.6325 95.249 52.9355 95.2389 53.2249 95.1708C54.3824 94.8986 55.2609 93.9591 55.3938 92.7063L59.6415 48.9536C59.8222 47.3842 58.6445 46.0121 57.1465 45.8757ZM39.5601 91.6046C39.8264 85.984 42.7593 73.2621 44.806 68.2001C45.9497 69.9467 47.5357 73.0551 48.8596 76.3473C45.6824 82.8357 41.9197 88.912 39.5601 91.6046Z" fill="white"/>
<path d="M63.9206 69.1411C62.3648 69.0183 61.0641 70.2403 60.9992 71.7825C60.9617 72.4021 60.3503 87.2043 60.2683 89.9721C60.217 91.5721 61.4254 92.8149 63.0254 92.8662C63.2127 92.8832 63.4442 92.8288 63.6757 92.7744C64.8911 92.4885 65.8002 91.4197 65.8617 90.1226C65.8859 87.3685 66.5892 72.1782 66.6199 72.0488C66.6847 70.5066 65.4628 69.206 63.9206 69.1411ZM65.1345 54.5636C63.5787 54.4409 62.193 55.5607 62.0566 57.0587L61.4668 63.1218C61.2862 64.6912 62.406 66.0769 63.9618 66.1997C64.2784 66.2474 64.5814 66.2372 64.8708 66.1692C66.0283 65.897 66.9068 64.9575 67.0397 63.7047L67.6295 57.6415C67.7523 56.0858 66.646 54.7579 65.1345 54.5636Z" fill="white"/>
<path d="M91.6097 57.9881C88.0861 58.328 84.7463 58.9302 81.8253 59.4949L81.9416 55.3143C82.0065 53.7721 80.7845 52.4715 79.2423 52.4066C77.6558 52.4132 76.4131 53.6216 76.3482 55.1638L76.2112 60.8151C73.028 61.5636 70.9853 62.2272 70.8117 62.268C69.3477 62.7955 68.5475 64.3274 69.0171 65.8049C69.4867 67.2825 71.0765 68.0691 72.554 67.5995C72.554 67.5995 73.858 67.1707 75.9858 66.6093L75.435 86.3445C75.428 87.8731 76.5921 89.1873 78.1786 89.1807C78.4373 89.242 78.6688 89.1876 78.9003 89.1332C80.0579 88.861 80.967 87.7921 81.0284 86.495L81.6577 65.2755C84.7388 64.6121 88.3679 63.9419 92.1809 63.5339C92.2966 63.5067 92.4124 63.4795 92.5281 63.4522C93.9172 63.1256 94.8434 61.8695 94.6904 60.4396C94.5101 58.894 93.1553 57.8078 91.6097 57.9881Z" fill="white"/>
<path d="M135.742 25.3171C121.304 27.5519 84.7321 40.8548 83.1524 41.4095C81.7463 41.9233 80.9597 43.5131 81.4872 44.977C81.9874 46.3252 83.3899 47.0948 84.779 46.7682C84.8947 46.741 84.9969 46.6559 85.0547 46.6423C85.2284 46.6014 91.0263 44.5051 98.8806 41.8031L95.533 75.8772C95.4102 77.433 96.5164 78.7608 98.028 78.9551C98.3446 79.0028 98.6339 78.9348 98.9233 78.8667C100.081 78.5945 100.959 77.655 101.106 76.4601L104.706 39.8225C116.036 36.0588 129.419 31.9344 136.559 30.8664C138.077 30.5704 139.149 29.1577 138.925 27.6836C138.687 26.1516 137.216 25.0926 135.742 25.3171Z" fill="white"/>
<path d="M117.888 69.6431C118.191 69.6329 118.508 69.6807 118.797 69.6126C118.855 69.599 118.913 69.5854 118.971 69.5718C120.128 69.2996 121.061 68.5916 121.694 67.6487C126.696 59.5707 127.764 44.1115 124.544 41.3263C123.918 40.7406 122.883 40.4954 122.059 40.628C121.048 40.7437 119.587 41.026 113.482 50.646L113.656 47.4902C113.721 45.948 112.557 44.6337 111.072 44.5552C109.517 44.4325 108.144 45.6102 108.079 47.1524L107.264 61.0865C107.114 61.4882 107.094 61.9205 107.189 62.3257L105.886 83.2761C105.821 84.8183 106.985 86.1325 108.527 86.1974C108.786 86.2588 109.075 86.1907 109.307 86.1363C110.522 85.8505 111.387 84.8531 111.462 83.6139L112.182 72.3897L137.379 100.067C138.036 100.523 138.87 100.693 139.681 100.503C140.317 100.353 140.841 99.9854 141.267 99.4578C142.193 98.2017 141.901 96.4382 140.645 95.512L117.888 69.6431ZM120.733 49.7959C120.603 53.9186 119.758 59.6753 117.303 64.0394C116.398 63.8248 114.678 63.0075 113.092 61.9758C115.677 57.6423 118.568 53.0536 120.733 49.7959Z" fill="white"/>
<path d="M148.935 41.454C147.379 41.3313 146.051 42.4375 145.871 44.0069L145.56 47.6223C143.821 44.1224 141.691 40.7756 139.44 39.7778C138.423 39.3453 137.313 39.3009 136.312 39.7195C131.845 41.5028 127.624 64.8496 127.538 69.9391C127.473 71.4813 127.394 75.0423 130.046 76.1899C130.533 76.4419 131.35 76.7995 132.623 76.5001C134.88 75.9693 138.51 73.2224 144.013 63.3776L143.355 70.1897C143.161 71.7013 144.28 73.087 145.836 73.2098C146.153 73.2575 146.456 73.2473 146.745 73.1793C147.903 72.9071 148.781 71.9676 148.914 70.7148L151.43 44.5319C151.624 43.0204 150.504 41.6347 148.935 41.454ZM133.08 69.613C133.347 63.9924 136.28 51.2706 138.326 46.2085C139.47 47.9551 141.056 51.0636 142.38 54.3558C139.203 60.8441 135.44 66.9205 133.08 69.613Z" fill="white"/>
<path d="M172.381 32.8256C171.006 32.1718 169.324 32.8116 168.684 34.2448L163.235 46.3977L157.936 37.6273C157.133 36.2893 155.393 35.9043 154.113 36.694C152.775 37.4972 152.318 39.1926 153.122 40.5306L160.48 52.6036L154.078 66.9352C153.424 68.3105 154.064 69.9923 155.497 70.6326C156.042 70.8709 156.662 70.9085 157.24 70.7724C158.051 70.5818 158.779 70.044 159.137 69.227L163.989 58.4358L169.078 66.8283C169.697 67.9041 170.96 68.3401 172.118 68.0679C172.349 68.0134 172.639 67.9454 172.901 67.7616C174.239 66.9583 174.638 65.2766 173.834 63.9386L166.744 52.2299L173.8 36.523C174.441 35.0898 173.814 33.4659 172.381 32.8256Z" fill="white"/>
<rect x="34.4453" width="110" height="110" rx="55" fill="white" fill-opacity="0.1"/>
</svg>
